<?xml version="1.0" encoding="UTF-8"?>
<!DOCTYPE svg PUBLIC "-//W3C//DTD SVG 1.1//EN" "http://www.w3.org/Graphics/SVG/1.1/DTD/svg11.dtd">
<!-- Creator: CorelDRAW X7 -->
<svg xmlns="http://www.w3.org/2000/svg" xml:space="preserve" width="117.628mm" height="119.741mm" version="1.1" style="shape-rendering:geometricPrecision; text-rendering:geometricPrecision; image-rendering:optimizeQuality; fill-rule:evenodd; clip-rule:evenodd"
viewBox="0 0 11763 11974"
 xmlns:xlink="http://www.w3.org/1999/xlink">
 <defs>
  <style type="text/css">
   <![CDATA[
    .str0 {stroke:#262B2D;stroke-width:23.82}
    .fil6 {fill:none;fill-rule:nonzero}
    .fil4 {fill:#262B2D}
    .fil2 {fill:#C32328}
    .fil3 {fill:#FEFEFE}
    .fil7 {fill:#262B2D;fill-rule:nonzero}
    .fil1 {fill:#B7A266;fill-rule:nonzero}
    .fil0 {fill:whitesmoke;fill-rule:nonzero}
    .fil5 {fill:#FEFEFE;fill-rule:nonzero}
   ]]>
  </style>
 </defs>
 <g id="Layer_x0020_1">
  <metadata id="CorelCorpID_0Corel-Layer"/>
  <g id="_656283864">
   <path class="fil0" d="M11763 10789c-102,660 -648,1185 -1336,1185l-9074 0c-764,0 -1353,-647 -1353,-1408l0 -9164c0,-719 528,-1338 1232,-1402l9316 0c630,57 1119,559 1215,1179l0 9610 0 0z"/>
   <path class="fil1" d="M1355 274l9053 0c597,0 1081,511 1081,1141l0 9145c0,629 -484,1140 -1081,1140l-9053 0c-597,0 -1082,-511 -1082,-1140l0 -9145c0,-630 485,-1141 1082,-1141z"/>
   <path class="fil2" d="M617 2925l10529 0 0 -1582c0,-396 -324,-721 -721,-721l-9087 0c-397,0 -721,325 -721,721l0 1582z"/>
   <path class="fil2" d="M617 8976l10529 0 0 1681c0,396 -325,721 -721,721l-9087 0c-397,0 -721,-325 -721,-721l0 -1681z"/>
   <path class="fil3" d="M9921 9647c235,4 314,16 317,215l0 557c8,227 6,336 -317,317l0 -1089zm167 1396c147,0 300,-11 426,-80 139,-72 202,-197 205,-367l0 -756c0,-164 -30,-329 -216,-420 -156,-75 -366,-80 -541,-80l-521 0 0 1703 647 0 0 0zm-1137 0l0 -341 -653 0 0 -367 601 0 0 -341 -601 0 0 -313 620 0 0 -341 -1100 0 0 1703 1133 0zm-2267 0l0 -720 598 0 0 -340 -598 0 0 -302 649 0 0 -341 -1130 0 0 1703 481 0 0 0zm-2194 -570l0 182c0,224 186,429 625,429 399,0 617,-182 617,-509 0,-206 -65,-320 -177,-406 -112,-86 -268,-145 -448,-241 -95,-54 -158,-106 -144,-209 10,-75 68,-120 166,-113 158,9 153,145 158,245l443 0c21,-320 -192,-552 -609,-552 -371,0 -603,164 -603,484 0,150 51,254 139,340 90,87 215,153 363,223 125,63 267,118 267,261 0,86 -49,170 -161,170 -153,0 -191,-86 -191,-184l0 -120 -445 0 0 0zm-471 -665c0,-327 -227,-509 -647,-509 -421,0 -656,182 -656,509l0 692c0,384 170,584 656,584 485,0 647,-200 647,-584l0 -692zm-481 726c0,98 -11,243 -166,243 -156,0 -175,-145 -175,-243l0 -699c0,-104 19,-229 172,-229 158,0 169,125 169,229l0 699zm-2494 -853l377 0 0 1362 480 0 0 -1362 388 0 0 -341 -1245 0 0 341z"/>
   <path class="fil3" d="M7027 2044l-271 -93 -167 243 0 -300 -270 -93 270 -92 0 -300 167 242 271 -92 -167 242 167 243 0 0zm-2291 -270c0,-478 380,-866 848,-866 309,0 579,169 727,421 -122,-161 -308,-263 -517,-263 -367,0 -665,317 -665,708 0,391 298,708 665,708 208,0 394,-102 516,-261 -149,250 -418,418 -726,418 -468,0 -848,-388 -848,-865l0 0z"/>
   <g>
    <path class="fil4" d="M5630 5941c0,-176 135,-319 302,-319 167,0 302,143 302,319 0,176 -135,319 -302,319 -167,0 -302,-143 -302,-319zm215 1307c0,-64 50,-116 111,-116 61,0 110,52 110,116 0,64 -49,117 -110,117 -61,0 -111,-53 -111,-117zm0 -405c0,-64 50,-116 111,-116 61,0 110,52 110,116 0,64 -49,116 -110,116 -61,0 -111,-52 -111,-116zm1243 -899c0,-64 49,-116 110,-116 61,0 110,52 110,116 0,64 -49,116 -110,116 -61,0 -110,-52 -110,-116zm-384 0c0,-64 49,-116 110,-116 61,0 110,52 110,116 0,64 -49,116 -110,116 -61,0 -110,-52 -110,-116zm-1747 0c0,-64 49,-116 110,-116 61,0 110,52 110,116 0,64 -49,116 -110,116 -61,0 -110,-52 -110,-116zm-385 0c0,-64 50,-116 111,-116 61,0 110,52 110,116 0,64 -49,116 -110,116 -61,0 -111,-52 -111,-116zm-476 -391c178,-862 931,-1510 1832,-1510 901,0 1654,648 1832,1510l-148 0c-59,0 -106,50 -108,112l-1029 -36c-107,-205 -314,-344 -551,-344 -232,0 -434,132 -543,329l-1008 51c-1,-62 -49,-112 -108,-112l-169 0 0 0zm3658 811c-158,718 -716,1283 -1424,1440l0 -127c0,-61 -46,-111 -103,-114l33 -1058c78,-52 144,-122 194,-204l1050 -54c0,66 49,117 108,117l142 0 0 0zm-2192 1448c-725,-147 -1299,-718 -1460,-1448l163 0c59,0 108,-51 108,-117l1010 35c58,103 140,188 240,245l47 1036c-60,0 -108,51 -108,114l0 135 0 0zm-1967 -1840c0,-1320 1051,-2389 2347,-2389 1296,0 2346,1069 2346,2389 0,1319 -1050,2389 -2346,2389 -1296,0 -2347,-1070 -2347,-2389z"/>
    <path class="fil5" d="M3951 6009c0,-549 221,-1046 578,-1403 -313,350 -504,815 -504,1325 0,1085 862,1965 1927,1965 525,0 1001,-214 1348,-561 -352,392 -859,638 -1422,638 -1064,0 -1927,-879 -1927,-1964l0 0z"/>
    <path class="fil6 str0" d="M3675 5973c0,-1282 1014,-2321 2265,-2321 1252,0 2266,1039 2266,2321 0,1282 -1014,2322 -2266,2322 -1251,0 -2265,-1040 -2265,-2322z"/>
    <path class="fil5" d="M4281 4392c414,-455 1004,-740 1659,-740 1252,0 2266,1039 2266,2321 0,647 -258,1232 -675,1653 377,-414 607,-970 607,-1581 0,-1282 -1014,-2321 -2266,-2321 -620,0 -1182,255 -1591,668l0 0z"/>
    <path class="fil5" d="M4544 5965c0,-26 6,-50 17,-71 -4,13 -6,27 -6,41 0,79 57,143 128,143 47,0 89,-29 110,-72 -15,59 -64,102 -122,102 -70,0 -127,-64 -127,-143l0 0z"/>
    <path class="fil5" d="M4928 5965c0,-26 6,-50 17,-71 -3,13 -5,27 -5,41 0,79 57,143 127,143 47,0 89,-29 111,-72 -16,59 -65,102 -122,102 -71,0 -128,-64 -128,-143l0 0z"/>
    <path class="fil5" d="M6675 5965c0,-26 6,-50 17,-71 -4,13 -5,27 -5,41 0,79 57,143 127,143 47,0 89,-29 111,-72 -16,59 -65,102 -122,102 -71,0 -128,-64 -128,-143l0 0z"/>
    <path class="fil5" d="M7060 5965c0,-26 6,-50 16,-71 -3,13 -5,27 -5,41 0,79 57,143 127,143 48,0 89,-29 111,-72 -16,59 -64,102 -122,102 -70,0 -127,-64 -127,-143l0 0z"/>
    <path class="fil5" d="M5817 6864c0,-26 6,-50 17,-71 -4,13 -6,27 -6,41 0,79 57,143 128,143 47,0 89,-29 110,-72 -15,59 -64,102 -122,102 -70,0 -127,-64 -127,-143l0 0z"/>
    <path class="fil5" d="M5817 7269c0,-26 6,-50 17,-71 -4,13 -6,27 -6,41 0,79 57,144 128,144 47,0 89,-30 110,-73 -15,59 -64,102 -122,102 -70,0 -127,-64 -127,-143l0 0z"/>
    <path class="fil5" d="M5544 5996c0,-114 50,-216 129,-284 -48,63 -77,143 -77,230 0,203 158,368 353,368 85,0 164,-32 225,-84 -65,84 -164,138 -276,138 -195,0 -354,-165 -354,-368z"/>
    <path class="fil5" d="M5371 5764c72,-253 295,-437 558,-437 322,0 583,274 583,613 0,86 -17,168 -47,243 15,-56 24,-115 24,-177 0,-339 -261,-613 -583,-613 -240,0 -446,153 -535,371l0 0z"/>
    <polygon class="fil5" points="6208,6520 6191,7545 6164,7544 6181,6519 "/>
    <polygon class="fil5" points="6512,5682 7484,5706 7483,5734 6511,5710 "/>
    <polygon class="fil5" points="7619,5587 7732,5587 7732,5615 7619,5615 "/>
    <path class="fil5" d="M4109 5587l148 0c53,-3 86,36 86,91l0 627 -28 0 0 -627c0,-39 -20,-66 -58,-63l-148 0 0 -28 0 0z"/>
    <polygon class="fil5" points="4386,5700 5346,5670 5347,5698 4387,5728 "/>
    <path class="fil5" d="M6274 7801l1 -112c0,-2 4,-62 -59,-62l-595 0 0 -28 595 0c56,0 89,39 86,91l0 111 -28 0z"/>
    <path class="fil7" d="M617 8661l4712 0c-1180,-282 -2059,-1373 -2059,-2675 0,-1421 1048,-2591 2391,-2732l-5044 0 0 5407z"/>
    <polygon class="fil5" points="617,3254 1645,3254 1645,4338 617,4338 "/>
    <polygon class="fil5" points="1645,4338 2673,4338 2673,5423 1645,5423 "/>
    <polygon class="fil5" points="2673,3254 3701,3254 3701,4338 2673,4338 "/>
    <polygon class="fil5" points="617,5423 1645,5423 1645,6507 617,6507 "/>
    <polygon class="fil5" points="1645,6507 2673,6507 2673,7591 1645,7591 "/>
    <polygon class="fil5" points="617,7591 1645,7591 1645,8675 617,8675 "/>
    <polygon class="fil5" points="2673,7591 3701,7591 3701,8675 2673,8675 "/>
    <path class="fil5" d="M2673 5423l653 0c-37,181 -56,370 -56,563 0,178 16,352 47,521l-644 0 0 -1084 0 0z"/>
    <path class="fil7" d="M11146 3254l-4933 0c1417,172 2380,1387 2380,2689 0,1189 -624,2294 -2049,2732l4602 0 0 -5421 0 0z"/>
    <polygon class="fil5" points="10118,7591 11146,7591 11146,8675 10118,8675 "/>
    <polygon class="fil5" points="9090,6507 10118,6507 10118,7591 9090,7591 "/>
    <polygon class="fil5" points="8062,7591 9090,7591 9090,8675 8062,8675 "/>
    <polygon class="fil5" points="10118,5423 11146,5423 11146,6507 10118,6507 "/>
    <polygon class="fil5" points="9090,4338 10118,4338 10118,5423 9090,5423 "/>
    <polygon class="fil5" points="10118,3254 11146,3254 11146,4338 10118,4338 "/>
    <polygon class="fil5" points="8062,3254 9090,3254 9090,4338 8062,4338 "/>
    <path class="fil5" d="M9090 6507l-546 0c31,-170 47,-371 47,-564 0,-178 -17,-352 -48,-520l547 0 0 1084 0 0z"/>
   </g>
  </g>
 </g>
</svg>
